<svg width="40" height="40" viewBox="0 0 40 40" fill="none" xmlns="http://www.w3.org/2000/svg">
<g opacity="0.25">
<path d="M15 3.33334H25C25.9205 3.33334 26.6666 4.07954 26.6666 5.00001V8.33334C26.6666 9.25382 25.9205 10 25 10H15C14.0795 10 13.3333 9.25382 13.3333 8.33334V5.00001C13.3333 4.07954 14.0795 3.33334 15 3.33334V3.33334" stroke="#717182" stroke-width="3.33333" stroke-linecap="round" stroke-linejoin="round"/>
<path d="M26.6667 6.66666H30C31.841 6.66666 33.3334 8.15904 33.3334 9.99999V33.3333C33.3334 35.1743 31.841 36.6667 30 36.6667H10C8.15907 36.6667 6.66669 35.1743 6.66669 33.3333V9.99999C6.66669 8.15904 8.15907 6.66666 10 6.66666H13.3334" stroke="#717182" stroke-width="3.33333" stroke-linecap="round" stroke-linejoin="round"/>
<path d="M20 18.3333H26.6667" stroke="#717182" stroke-width="3.33333" stroke-linecap="round" stroke-linejoin="round"/>
<path d="M20 26.6667H26.6667" stroke="#717182" stroke-width="3.33333" stroke-linecap="round" stroke-linejoin="round"/>
<path d="M13.3333 18.3333H13.35" stroke="#717182" stroke-width="3.33333" stroke-linecap="round" stroke-linejoin="round"/>
<path d="M13.3333 26.6667H13.35" stroke="#717182" stroke-width="3.33333" stroke-linecap="round" stroke-linejoin="round"/>
</g>
</svg>
