<svg width="20" height="20" viewBox="0 0 20 20" fill="none" xmlns="http://www.w3.org/2000/svg">
<path d="M7.50008 1.66667H12.5001C12.9603 1.66667 13.3334 2.03977 13.3334 2.50001V4.16667C13.3334 4.62691 12.9603 5.00001 12.5001 5.00001H7.50008C7.03984 5.00001 6.66675 4.62691 6.66675 4.16667V2.50001C6.66675 2.03977 7.03984 1.66667 7.50008 1.66667V1.66667" stroke="white" stroke-width="1.66667" stroke-linecap="round" stroke-linejoin="round"/>
<path d="M13.3333 3.33333H14.9999C15.9204 3.33333 16.6666 4.07952 16.6666 4.99999V16.6667C16.6666 17.5871 15.9204 18.3333 14.9999 18.3333H4.99992C4.07944 18.3333 3.33325 17.5871 3.33325 16.6667V4.99999C3.33325 4.07952 4.07944 3.33333 4.99992 3.33333H6.66659" stroke="white" stroke-width="1.66667" stroke-linecap="round" stroke-linejoin="round"/>
<path d="M10 9.16667H13.3333" stroke="white" stroke-width="1.66667" stroke-linecap="round" stroke-linejoin="round"/>
<path d="M10 13.3333H13.3333" stroke="white" stroke-width="1.66667" stroke-linecap="round" stroke-linejoin="round"/>
<path d="M6.66675 9.16667H6.67508" stroke="white" stroke-width="1.66667" stroke-linecap="round" stroke-linejoin="round"/>
<path d="M6.66675 13.3333H6.67508" stroke="white" stroke-width="1.66667" stroke-linecap="round" stroke-linejoin="round"/>
</svg>
